<svg version="1" xmlns="http://www.w3.org/2000/svg" width="1333.333" height="1333.333" viewBox="0 0 1000.000000 1000.000000"><path d="M608.8 120.4c-.1.2-5.5.6-11.9 1-36.1 1.9-76.7 11.8-114.9 28.1-39.4 16.7-60.8 29.2-88.5 51.4-7.1 5.8-16.5 13.3-20.9 16.8-19.2 15.5-29.3 18.3-54.1 15.2-63.8-7.9-108.4-3.8-138.5 12.8-31.3 17.3-52.3 47.8-62.8 91.3-7.5 30.7-9.3 48.4-9.2 88.1l.1 32.5-4.9 6.5c-17.3 22.9-38.4 58.9-52.3 89C31.1 596.3 17 644 11.5 687c-.8 6.9-2.1 16.3-2.8 21-.6 4.7-1.1 17-1.1 27.5.1 16.3.4 20.2 2.3 27 2.6 9.9 6.3 16 12 20 3.8 2.7 5.1 3 11.5 3 6.2 0 7.8-.4 11.3-2.7 2.2-1.5 5-4.2 6.1-6 1.2-1.9 6.2-18.5 11.3-36.9 19.6-71.9 32.3-107.8 52.6-148.3 13.2-26.6 25.7-46.3 42.8-67.6 14.6-18.1 11.8-16.6 33.5-17.4 27.8-.9 50.1-4.8 76-13.3 13.9-4.5 41.7-17.5 50.4-23.5l5-3.4 5.9 9c28.7 43.7 70 83.2 119.1 113.8 16.3 10.3 50.9 27.7 68.1 34.5 18.9 7.4 38.1 13.7 55.5 18.2 8.4 2.2 15.4 4.2 15.6 4.3.3.4-11.6 76.1-12.1 76.6-.2.2-4.5 1.2-9.8 2.2-15.8 3.3-26.7 6.8-38.2 12.5-19.3 9.5-31.5 20.8-38.8 35.9-5.2 10.7-7 19.5-6.6 32.9.4 10.3.6 11.7 3.1 15.4 5 7.5 14.3 10.9 23.5 8.4 4.2-1.2 6.8-3.3 16-13.4 3.7-4.2 12.6-9.8 13.7-8.6.2.2.6 3.8.9 8 .2 4.2.9 8.5 1.5 9.6.6 1.1.8 2.4.4 2.8-.4.3 0 .5.8.3.8-.1 1.4.1 1.5.7.1 1.4 5.3 6.4 5.9 5.7.3-.3.6 0 .6.7s.5.9 1 .6c.6-.3 1-.2 1 .4 0 .5.9.8 2 .6 1.1-.2 2 0 2 .4 0 1 8.1.8 9.8-.3.6-.4 1.6-.4 2.2-.1.6.3 1 .1 1-.5s.5-.8 1-.5c.6.3 1.3-.1 1.6-.9.3-.9 1.1-1.6 1.8-1.6.6 0 3.6-3.7 6.6-8.2 10.4-15.6 22.2-24.6 34.5-26.4l5-.7-6.7 6.8c-9 9-13.6 16.5-14.6 24.4-.5 3.4-.5 6.4-.1 6.6.4.3.6 1.6.5 3-.2 1.3.1 2.2.5 1.9.5-.3.9.2.9 1 0 .9.5 1.6 1 1.6.6 0 1 .5 1 1.1 0 1.4 2.5 3.9 3.9 3.9.6 0 1.1.4 1.1 1 0 .5.7 1 1.5 1s1.5.4 1.5.9.9.7 2 .4c1.1-.3 2-.1 2 .4 0 1.1 11.9 0 21.5-2 3.9-.8 11.1-2 16-2.6 5-.6 10.6-1.4 12.5-1.6l3.5-.4v9.7c0 8.5.3 10.2 2.4 13.5 3.6 5.8 8.9 8.8 16.6 9.4 4.4.4 6.5.2 6.5-.5 0-.6.7-.9 1.5-.6.8.3 6.5-2.3 12.7-5.9 13.8-7.9 24.9-13.5 34.8-17.5 12.7-5.2 19-6.3 37.7-6.4 6.7 0 12-.4 11.8-.8-.2-.4.7-.5 2-.2 1.5.2 2.5 0 2.5-.7s.6-1.1 1.3-1c3.2.4 4.8-.3 5.7-2.3.5-1.3.9-1.7.9-1 .1 1 .5 1 1.7-.2.8-.9 1.3-2 .9-2.6-.4-.6.1-.7 1.1-.3 1.3.5 1.6.3 1.1-1-.4-1.2-.2-1.4 1-1 1.3.5 1.5.2 1-1.1-.4-.9-.3-1.5.2-1.2.9.6 2.1-1.4 2.7-4.2.1-.8-.2-1-1-.5-.6.4-.4.1.6-.9 2-1.8 2.4-3.3.6-2.2-.7.4-.8.3-.4-.5.4-.6.9-2.2 1.2-3.6.3-2 .1-2.3-1.7-2-1.2.3-1.8.1-1.5-.3.4-.4 1.2-.8 1.7-.8.5-.1 1.2-.2 1.5-.3.4 0 .1-.7-.5-1.5s-1.1-1.8-.9-2.2c.7-2.7-10.6-15.8-12.6-14.7-.6.3-.8.2-.3-.2.4-.5 0-1.9-.9-3.2-3.1-4.8-4-10.4-3.3-21.3 1.7-26.5 12.6-49.5 36.2-76.5 12.7-14.6 25.5-25.7 54.2-47 40.8-30.4 61.4-53.3 77.3-85.8 17.2-35 27-84.6 28.8-146.2 1.9-60.5-9.1-109.1-33.9-150.4-14.3-23.8-41.5-53.9-63.1-69.9-39-28.8-95.8-53.2-157.1-67.6-40.2-9.4-69.1-12.7-108.7-12.5-10.8 0-19.8.2-20 .3zm80.3 550.1c6.2 1.8 14.1 5.9 18.3 9.5 6.7 5.9 12.4 17.9 14 29.5 3.1 21.5 2.6 39.3-1.4 48.2-1.5 3.5-2.8 4.7-6.7 6.4-7.5 3.2-14.5 5.4-32.9 10.3-9.4 2.5-17.8 4.8-18.5 5.1-1.1.4-1.3-.4-1.1-4 .7-7.9-.6-13.1-4.5-18.2l-3.6-4.7 1.2-10.6c3.2-27.8 12.4-58.7 21.1-71 2.4-3.3 3.9-3.4 14.1-.5zM806 807.6c0 .8-1.9 1.3-2.4.6-.3-.5.1-.9.9-.9s1.5.2 1.5.3zm3.1 4.1c1.3 1.6 1.2 1.7-.3.4-1-.7-1.8-1.5-1.8-1.7 0-.8.8-.3 2.1 1.3zm-4 4c1.3 1.6 1.2 1.7-.3.4-1-.7-1.8-1.5-1.8-1.7 0-.8.8-.3 2.1 1.3zm.9 17.7c0 .2-.8 1-1.7 1.7-1.6 1.3-1.7 1.2-.4-.4 1.3-1.6 2.1-2.1 2.1-1.3zm-7.9 3.9c-1 .9-1.1.8-.5-.6.3-1 .9-1.5 1.2-1.2.3.3 0 1.1-.7 1.8zm4-.6c1.3 1.6 1.2 1.7-.3.4-1-.7-1.8-1.5-1.8-1.7 0-.8.8-.3 2.1 1.3zm-10.1.9c0 .8-1.9 1.3-2.4.6-.3-.5.1-.9.9-.9s1.5.2 1.5.3zm7 2.4c0 .5-.5 1-1.1 1-.5 0-.7-.5-.4-1 .3-.6.8-1 1.1-1 .2 0 .4.4.4 1z"/></svg>